<?xml version="1.0" standalone="no"?>
<!DOCTYPE svg PUBLIC "-//W3C//DTD SVG 20010904//EN"
 "http://www.w3.org/TR/2001/REC-SVG-20010904/DTD/svg10.dtd">
<svg version="1.0" xmlns="http://www.w3.org/2000/svg"
 width="1248.000000pt" height="832.000000pt" viewBox="0 0 1248.000000 832.000000"
 preserveAspectRatio="xMidYMid meet">

<g transform="translate(0.000000,832.000000) scale(0.100000,-0.100000)"
fill="#000000" stroke="none">
<path d="M6093 6890 c-27 -6 -348 -181 -523 -286 -62 -37 -737 -420 -1055
-599 -115 -65 -275 -155 -355 -200 -80 -46 -203 -115 -275 -155 -71 -39 -142
-83 -157 -97 -61 -58 -59 -32 -65 -761 -3 -367 -7 -669 -9 -671 -2 -2 -4 191
-5 430 -1 721 -1 719 -22 734 -10 7 -14 16 -8 19 5 3 12 0 14 -6 3 -8 6 -6 6
5 1 9 -4 17 -10 17 -6 0 -9 7 -5 15 3 8 -1 21 -10 29 -9 10 -11 17 -4 21 7 4
7 11 2 18 -14 18 -24 67 -13 67 5 0 11 10 13 23 2 12 9 22 17 22 8 0 16 6 19
14 3 8 0 11 -6 7 -6 -3 -13 3 -17 14 -7 23 -21 26 -28 8 -2 -7 -7 -10 -11 -7
-4 4 6 20 22 37 l29 30 -25 0 c-17 0 -20 -3 -11 -9 8 -5 12 -9 9 -10 -3 0 -13
-2 -22 -4 -26 -5 -44 22 -30 45 9 15 8 20 -6 26 -9 4 -28 6 -42 6 -15 -1 -19
1 -10 5 8 3 17 9 20 12 8 9 62 45 90 59 14 7 36 22 50 33 35 28 -48 -14 -155
-78 l-80 -48 -3 -1572 -2 -1571 207 -119 c345 -198 976 -563 1363 -788 201
-117 546 -316 767 -444 l401 -232 91 55 c88 54 198 118 626 364 110 63 301
173 425 245 124 72 266 154 315 182 94 53 455 264 800 465 110 65 254 149 320
187 l120 69 -4 1575 c-3 1549 -4 1574 -23 1590 -25 20 -138 82 -138 76 0 -3
32 -25 70 -48 59 -37 70 -48 70 -71 0 -19 -5 -28 -16 -28 -10 0 -13 -6 -10
-17 3 -10 1 -25 -5 -33 -9 -13 -10 -12 -5 3 3 10 2 15 -4 12 -5 -3 -9 -16 -8
-28 0 -12 -1 -29 -3 -37 -2 -8 2 -14 9 -12 10 2 10 -4 -1 -25 -8 -16 -12 -34
-10 -41 6 -17 -40 -59 -58 -53 -11 3 -11 1 -3 -10 14 -19 12 -32 -6 -50 -17
-16 -28 -17 -50 -6 -8 5 -5 0 8 -11 14 -14 20 -26 15 -38 -5 -13 -3 -16 10
-11 20 8 33 -11 18 -26 -6 -6 -11 -7 -11 -1 0 5 -10 11 -22 11 -19 2 -20 0 -8
-8 11 -8 12 -12 2 -16 -6 -2 -9 -9 -6 -15 4 -6 0 -15 -7 -20 -10 -7 -7 -8 11
-4 21 4 22 3 10 -7 -8 -7 -17 -21 -18 -32 -2 -11 -10 -24 -18 -28 -12 -7 -14
-81 -16 -440 l-1 -432 -9 620 c-6 405 -12 630 -20 648 -25 64 -73 98 -348 245
-36 19 -77 43 -92 54 -14 10 -28 18 -31 18 -3 0 -38 19 -79 43 -329 195 -1686
970 -1775 1015 -64 32 -131 44 -180 32z m63 -67 c-4 -16 -9 -36 -12 -45 -4
-13 8 -24 45 -43 28 -13 90 -49 138 -78 255 -154 784 -457 800 -457 2 0 1 5
-2 11 -4 6 -4 30 0 54 6 42 7 44 31 35 50 -19 538 -305 554 -325 8 -10 3 -15
-20 -23 -16 -6 -30 -16 -30 -21 0 -6 -7 -11 -15 -11 -49 0 -16 -22 460 -300
143 -83 272 -163 288 -178 l27 -26 28 27 c15 15 33 27 39 27 6 0 16 7 23 15
10 12 16 13 26 4 8 -6 14 -17 14 -23 0 -16 -93 -61 -98 -47 -2 7 -8 6 -16 -2
-9 -8 -11 -21 -5 -42 5 -16 9 -471 9 -1010 0 -539 3 -1030 6 -1091 l7 -110 33
34 c19 20 34 31 34 27 0 -5 5 -4 12 3 24 24 38 -43 38 -190 l0 -139 -60 46
c-33 25 -60 42 -60 38 0 -5 27 -29 60 -54 l59 -44 1 -86 c0 -56 -5 -91 -13
-103 -13 -18 -16 -18 -66 -1 l-51 17 -35 -31 c-19 -17 -90 -63 -158 -102 -200
-117 -586 -348 -672 -403 l-80 -51 44 -5 c25 -3 46 -10 48 -17 7 -19 -453
-285 -497 -287 -14 -1 -31 -5 -39 -10 -9 -6 -12 -5 -7 2 3 6 2 13 -4 17 -6 4
-8 11 -5 16 4 5 3 9 -2 9 -13 0 -329 -175 -578 -320 -126 -74 -245 -141 -263
-149 -31 -15 -33 -18 -26 -54 6 -36 5 -38 -17 -35 -17 2 -25 12 -30 38 -4 19
-12 36 -17 38 -6 2 -66 35 -134 74 -550 318 -816 468 -833 468 -15 0 -17 -2
-6 -9 9 -6 10 -14 4 -25 -8 -14 -39 0 -224 107 -118 67 -228 131 -246 142 -31
18 -35 45 -6 45 51 0 -43 59 -557 353 -135 76 -256 149 -269 161 -33 30 -60
93 -62 146 -1 25 -3 37 -6 28 -2 -10 -9 -18 -14 -18 -6 0 -7 -5 -4 -10 7 -12
-12 -40 -26 -40 -5 0 -9 26 -9 58 0 46 3 59 15 59 16 0 21 -13 6 -19 -5 -1 -2
-10 7 -18 14 -13 15 -12 9 3 -3 9 -2 19 3 22 4 3 10 -1 13 -7 11 -33 18 675
16 1550 -2 1042 -4 998 47 1043 17 15 189 114 679 391 77 44 145 86 151 94 6
7 14 11 17 7 4 -3 7 -1 7 5 0 13 -36 26 -50 17 -5 -3 -7 0 -5 7 6 14 176 118
299 182 52 28 72 34 82 25 11 -9 11 -14 -3 -27 -11 -11 -12 -17 -4 -20 13 -4
236 118 721 393 316 180 363 205 383 205 15 0 27 29 27 68 0 13 6 22 16 22 13
0 15 -6 10 -27z m-2613 -1205 c6 -30 2 -84 -6 -80 -4 1 -7 5 -8 10 0 4 -5 13
-11 20 -8 8 -7 12 3 12 11 0 11 3 -1 11 -11 8 -12 12 -2 16 21 8 13 25 -9 18
-15 -5 -19 -4 -15 4 12 20 44 12 49 -11z m17 -183 c14 -19 14 -19 -2 -6 -10 7
-18 18 -18 24 0 6 1 8 3 6 1 -2 9 -13 17 -24z m5207 -88 c0 -7 -7 -19 -16 -27
-13 -13 -14 -12 -8 4 4 10 7 22 7 27 0 5 4 9 8 9 5 0 9 -6 9 -13z m13 -36 c0
-5 -7 -11 -14 -14 -10 -4 -13 -1 -9 9 6 15 23 19 23 5z m-53 -25 c-4 -11 -1
-13 11 -10 14 5 13 3 -2 -10 -15 -12 -22 -13 -27 -4 -4 7 -3 18 3 25 14 17 21
16 15 -1z m76 -4 c-2 -10 -13 -18 -24 -18 -32 0 -21 14 28 35 0 1 -1 -7 -4
-17z m-63 -53 c0 -8 5 -8 15 1 10 9 15 9 15 1 0 -6 -2 -11 -4 -11 -2 0 -11 -3
-19 -6 -8 -3 -17 2 -20 10 -4 9 -2 16 3 16 6 0 10 -5 10 -11z m20 -32 c0 -2
-9 -12 -20 -22 -19 -18 -20 -17 -20 3 0 15 6 22 20 22 11 0 20 -2 20 -3z m-50
-61 c0 -3 -4 -8 -10 -11 -5 -3 -10 -1 -10 4 0 6 5 11 10 11 6 0 10 -2 10 -4z
m-4600 -2730 c431 -244 903 -516 1250 -721 151 -89 327 -192 390 -228 120 -69
186 -113 123 -83 -30 15 -382 216 -603 345 -58 33 -370 212 -695 397 -827 473
-846 484 -872 523 -36 53 -27 54 25 3 34 -34 141 -100 382 -236z m4488 254
c-17 -50 -56 -80 -254 -194 -104 -60 -343 -199 -532 -308 -189 -109 -569 -328
-845 -485 -276 -157 -560 -319 -631 -359 -159 -91 -183 -94 -293 -37 -40 20
-71 38 -69 41 2 2 27 -8 55 -22 41 -21 64 -26 127 -26 87 0 102 7 349 155 66
40 271 159 455 265 295 170 631 364 1025 593 66 38 199 114 295 169 225 128
259 151 293 199 34 47 39 49 25 9z m-2663 -1318 c-3 -3 -11 0 -18 7 -9 10 -8
11 6 5 10 -3 15 -9 12 -12z"/>
<path d="M5945 6534 c-172 -96 -486 -273 -1200 -678 -137 -78 -377 -214 -532
-302 -155 -87 -281 -163 -279 -169 1 -5 74 -68 162 -139 l159 -129 555 7 555
6 274 -220 c151 -121 278 -220 282 -220 4 0 10 21 13 48 9 63 134 625 146 657
5 14 16 25 23 25 20 0 247 66 497 144 215 68 493 146 517 146 7 0 13 -7 13
-15 0 -12 -178 -548 -418 -1257 -36 -108 -64 -199 -62 -201 3 -2 137 -116 299
-253 162 -137 335 -283 386 -325 51 -41 159 -132 241 -201 82 -69 224 -189
316 -267 213 -180 450 -371 460 -371 10 0 11 2312 1 2452 l-6 97 -486 283
c-650 377 -1417 823 -1572 914 -69 41 -132 74 -140 74 -8 0 -99 -48 -204 -106z"/>
<path d="M6975 5653 c-61 -18 -74 -29 -45 -38 25 -8 25 -52 -2 -68 -26 -17
-51 10 -45 48 l5 32 -71 -20 c-40 -10 -73 -20 -74 -21 -8 -7 -11 -81 -5 -90
16 -21 12 -61 -8 -74 -15 -9 -21 -9 -27 1 -12 20 -14 55 -3 62 5 3 10 24 10
46 0 41 -4 43 -49 30 -23 -6 -24 -10 -22 -89 2 -69 0 -82 -13 -82 -13 0 -16
14 -16 76 0 67 -2 75 -17 72 -16 -3 -18 -17 -18 -120 l0 -117 -54 -55 -53 -54
1 -243 c0 -134 -4 -251 -9 -259 -5 -8 -43 -49 -86 -91 -68 -68 -75 -78 -65
-97 7 -14 8 -23 1 -27 -12 -8 -13 -202 -1 -209 12 -8 -10 -56 -25 -56 -18 0
-25 42 -14 81 13 45 13 179 0 179 -5 0 -10 11 -10 25 0 19 25 51 90 119 l90
93 0 80 c0 72 -2 81 -20 86 -18 5 -20 0 -20 -49 0 -30 5 -54 10 -54 6 0 10 -8
10 -17 0 -19 -25 -49 -136 -166 l-65 -69 3 -166 3 -167 130 -2 c125 -3 131 -2
158 22 15 13 32 37 38 52 39 100 199 584 199 602 0 12 7 32 15 44 19 29 83
230 101 317 19 90 18 117 -6 130 -27 15 -25 38 4 46 33 8 46 -2 46 -34 1 -23
2 -24 11 -10 12 22 111 310 107 313 -2 1 -25 -4 -53 -12z m-148 -455 c-3 -7
-5 -2 -5 12 0 14 2 19 5 13 2 -7 2 -19 0 -25z m-213 -160 c8 -13 6 -21 -7 -36
-14 -16 -17 -41 -17 -163 l0 -144 -96 -89 c-92 -85 -95 -90 -89 -122 4 -23 2
-34 -5 -34 -9 0 -10 -28 -7 -97 3 -54 6 -107 8 -118 3 -14 -2 -21 -18 -23 -28
-4 -54 41 -35 60 15 15 16 112 2 103 -5 -3 -10 1 -10 9 0 8 5 18 11 22 7 4 9
24 6 53 l-5 46 109 103 109 104 0 138 c0 110 -3 140 -15 150 -18 15 -19 32 -3
48 17 17 48 11 62 -10z m-104 -558 c8 -15 6 -23 -11 -39 -19 -18 -21 -28 -18
-108 4 -83 3 -88 -16 -88 -16 0 -20 6 -18 30 1 17 4 59 6 94 3 37 0 72 -6 82
-8 13 -7 21 2 33 18 22 48 20 61 -4z"/>
<path d="M6570 5030 c0 -5 5 -10 10 -10 6 0 10 5 10 10 0 6 -4 10 -10 10 -5 0
-10 -4 -10 -10z"/>
<path d="M6906 5593 c-11 -11 -6 -23 9 -23 8 0 15 4 15 9 0 13 -16 22 -24 14z"/>
<path d="M6363 5327 l-151 -41 -11 -40 c-6 -23 -53 -211 -105 -419 -51 -208
-96 -381 -100 -384 -4 -4 -55 41 -114 100 -97 97 -132 123 -132 98 0 -4 25
-31 56 -59 56 -52 62 -67 31 -86 -22 -14 -59 19 -51 48 4 15 -6 32 -35 60 -40
39 -40 39 -116 37 -75 -2 -76 -2 -108 34 l-32 37 -162 -4 -162 -3 -108 113
-108 112 -77 0 c-42 0 -80 -4 -83 -10 -9 -15 -41 -12 -55 6 -11 12 -10 18 3
32 15 14 22 14 52 3 19 -7 65 -11 101 -10 l65 2 112 -111 c103 -103 115 -112
150 -112 20 0 37 4 37 9 0 18 -91 110 -112 113 -33 5 -46 34 -25 55 21 21 52
7 52 -23 0 -10 27 -43 60 -73 33 -30 64 -61 68 -69 7 -11 28 -12 106 -7 l98 7
28 -36 c26 -35 30 -36 92 -36 77 0 77 0 -25 108 l-68 72 -77 0 c-48 0 -77 -4
-77 -11 0 -6 -12 -9 -27 -7 -22 2 -28 8 -28 28 0 20 6 26 28 28 15 2 27 -1 27
-7 0 -12 107 -15 135 -5 13 5 -6 30 -91 115 l-109 109 -301 0 c-293 0 -302 -1
-307 -20 -7 -26 -33 -26 -40 1 -8 29 -61 23 -65 -7 -2 -12 -14 -31 -26 -44
l-24 -22 85 -81 85 -82 87 4 c47 2 88 7 89 12 6 14 30 10 52 -8 11 -10 57 -55
102 -101 l82 -83 179 1 180 2 31 -31 c21 -21 27 -34 20 -41 -7 -7 -19 -1 -39
20 -23 24 -37 30 -69 29 -23 0 -35 -3 -28 -6 17 -7 15 -52 -4 -60 -8 -3 -20
-1 -27 6 -7 7 -63 11 -162 11 l-150 0 -45 60 c-40 53 -48 59 -72 54 -14 -3
-29 0 -33 5 -3 6 -36 11 -73 11 l-67 -1 35 -30 c19 -17 59 -49 88 -72 43 -33
55 -38 63 -26 7 12 9 11 9 -3 0 -9 11 -30 25 -46 24 -29 27 -30 142 -34 94 -4
121 -2 135 9 27 24 53 12 53 -22 0 -24 -5 -31 -24 -33 -13 -2 -28 1 -34 7 -6
6 -51 11 -106 11 l-96 -1 39 -34 39 -35 206 0 206 0 88 -87 c53 -53 91 -83 94
-75 6 15 43 16 43 1 0 -8 40 -10 132 -8 132 4 158 -2 124 -30 -10 -9 -25 -10
-48 -3 -44 12 -187 5 -216 -10 -21 -11 -30 -5 -125 90 l-102 102 -111 0 -111
0 5 -25 c2 -14 12 -26 21 -26 39 -4 65 1 81 16 21 19 40 19 40 -1 0 -10 6 -13
19 -9 14 4 44 -18 122 -94 l103 -100 140 1 c81 0 148 5 157 11 13 8 22 7 33
-2 14 -12 14 -15 -2 -37 -20 -27 -42 -31 -42 -8 0 15 -16 16 -147 12 l-148 -5
-83 78 c-46 44 -88 79 -94 79 -6 0 -16 8 -23 17 -15 20 -136 29 -202 15 l-38
-8 32 -24 c28 -20 43 -23 95 -21 35 1 66 8 70 14 5 8 13 5 27 -7 15 -13 21
-15 21 -6 0 9 6 8 20 -5 11 -10 20 -23 20 -29 0 -6 33 -44 73 -84 l72 -72 203
1 202 0 0 35 c0 19 -4 34 -10 34 -5 0 -10 11 -10 25 0 14 4 25 9 25 4 0 9 78
10 174 l2 174 89 90 90 89 0 76 c0 57 -4 76 -15 81 -17 6 -21 56 -5 56 14 0
13 136 -2 159 -24 40 23 71 53 35 10 -12 10 -20 1 -35 -7 -10 -12 -51 -12 -90
0 -57 4 -75 18 -85 14 -11 15 -16 5 -33 -8 -12 -13 -54 -13 -99 l0 -77 -89
-88 -90 -87 -2 -165 c-2 -173 3 -195 42 -195 12 0 19 7 19 20 0 11 -4 20 -8
20 -4 0 -9 11 -10 25 -1 14 3 25 8 25 6 0 10 42 10 105 0 63 -4 105 -10 105
-16 0 -11 38 7 48 10 6 14 16 10 26 -4 10 -3 14 3 11 5 -3 44 28 86 69 68 66
76 77 70 101 -4 15 -2 33 4 41 12 14 9 121 -5 162 -6 17 -4 22 10 22 16 0 17
8 12 90 -5 84 -4 90 14 90 18 0 19 -5 13 -85 -6 -69 -4 -89 9 -109 9 -14 14
-32 11 -40 -3 -9 -1 -16 5 -16 8 0 11 51 11 163 l1 162 54 45 c46 37 55 49 55
77 0 42 3 42 -187 -10z m-1321 -729 c-4 -3 -16 -8 -27 -10 -27 -4 -35 39 -8
44 19 4 46 -22 35 -34z m520 -75 l108 -4 65 -72 c36 -40 60 -74 54 -76 -6 -2
-41 26 -78 63 -52 51 -73 66 -96 66 -29 0 -27 -3 50 -80 l80 -80 96 0 c69 0
99 4 102 13 4 9 8 8 16 -3 8 -12 16 -13 38 -4 38 14 53 8 53 -22 0 -28 -25
-43 -43 -25 -6 6 -47 11 -96 12 -162 2 -167 3 -271 102 -83 77 -98 87 -131 87
-21 0 -42 -7 -49 -16 -18 -20 -64 -14 -68 9 -5 27 18 50 42 41 12 -4 69 -9
128 -11z m595 -145 c-3 -8 -6 -5 -6 6 -1 11 2 17 5 13 3 -3 4 -12 1 -19z"/>
<path d="M5417 4513 c-12 -11 -8 -23 8 -23 8 0 15 7 15 15 0 16 -12 20 -23 8z"/>
<path d="M3900 4058 l1 -1283 537 -305 c295 -168 638 -364 762 -436 451 -261
937 -534 952 -534 11 0 252 135 763 428 187 108 410 235 495 282 85 48 225
127 310 177 586 339 612 354 617 369 3 10 -59 60 -270 222 l-69 52 -568 0
-568 0 -282 235 c-155 129 -285 235 -290 235 -4 0 -11 -17 -15 -37 -8 -47
-132 -583 -146 -636 -13 -47 -20 -51 -245 -112 -93 -25 -175 -48 -181 -50 -10
-3 -13 14 -13 66 l0 70 46 42 45 41 -2 263 -1 263 71 69 c66 64 71 71 59 90
-10 17 -10 25 0 41 7 11 12 52 12 95 0 43 -5 84 -12 95 -10 16 -10 24 0 41 10
15 11 24 3 32 -24 24 0 54 34 41 17 -7 20 -40 5 -49 -6 -4 -4 -15 5 -29 13
-20 13 -25 0 -42 -21 -27 -21 -177 0 -194 8 -7 15 -16 15 -21 0 -5 -38 -48
-85 -96 l-84 -88 -1 -86 c0 -86 0 -86 25 -86 24 0 25 3 25 53 0 30 -4 54 -10
54 -5 0 -10 9 -10 21 0 12 34 56 88 111 l88 90 3 149 c1 92 -1 155 -8 162 -16
20 -6 52 17 55 16 2 25 -4 31 -20 5 -13 5 -25 -1 -29 -13 -9 -13 -248 0 -261
22 -22 13 -37 -75 -128 -49 -50 -89 -101 -91 -113 -11 -80 -13 -150 -3 -160
14 -14 14 -57 1 -57 -6 0 -10 -40 -10 -100 0 -81 -3 -100 -15 -100 -12 0 -13
16 -9 98 5 93 5 98 -20 127 l-25 30 -3 -177 c-3 -154 -1 -177 12 -173 8 2 51
14 95 26 44 12 84 25 88 29 8 7 152 581 177 704 10 50 10 226 0 429 0 13 -218
8 -223 -5 -4 -10 -7 -10 -18 0 -9 8 -50 12 -129 12 l-115 0 -95 95 -95 95 -69
0 -70 0 34 -30 c19 -16 86 -71 148 -122 81 -67 112 -98 112 -114 0 -12 -9 -51
-20 -86 -11 -34 -20 -65 -20 -68 0 -2 42 37 93 88 l94 93 114 -3 c149 -4 151
-22 3 -26 l-112 -3 -110 -113 -109 -113 -53 -164 c-77 -239 -80 -250 -70 -244
6 4 10 -8 10 -25 0 -27 -3 -30 -20 -25 -12 4 -20 2 -20 -5 0 -6 5 -8 10 -5 6
3 10 0 10 -9 0 -8 5 -16 12 -18 6 -2 9 -12 5 -21 -5 -13 -13 -16 -30 -12 -22
6 -26 0 -55 -84 -37 -103 -37 -110 -17 -117 12 -5 15 -26 15 -98 0 -81 2 -93
20 -104 17 -10 18 -16 10 -33 -7 -13 -19 -19 -33 -17 -21 3 -22 6 -19 109 3
86 1 107 -11 112 -11 4 -27 -35 -71 -171 -105 -326 -96 -305 -150 -320 -26 -8
-50 -12 -52 -10 -6 6 86 302 216 693 154 464 250 763 250 774 0 6 -89 85 -197
178 -109 92 -274 233 -368 313 -93 80 -226 193 -295 250 -124 103 -217 181
-506 427 -83 70 -179 150 -213 176 l-61 48 0 -1283z m2231 -335 l-6 -182 -82
-84 -83 -85 0 -75 c0 -52 4 -78 13 -84 20 -12 29 -44 16 -59 -16 -20 -25 -149
-10 -158 29 -18 -1 -72 -33 -60 -17 6 -23 54 -7 54 17 0 24 117 9 147 -10 20
-13 60 -11 136 l3 109 80 86 80 87 0 153 c0 104 -4 159 -12 173 -11 17 -10 22
7 35 37 28 42 3 36 -193z m-264 171 c3 -9 1 -25 -5 -35 -8 -12 -12 -69 -13
-151 l0 -133 -89 -90 -90 -90 0 -113 c0 -62 5 -133 11 -158 10 -39 9 -48 -4
-61 -13 -13 -19 -14 -31 -3 -18 14 -21 46 -6 55 6 4 10 66 10 153 l0 147 85
85 85 85 0 128 c0 73 -5 137 -11 148 -6 12 -8 27 -5 35 7 19 55 18 63 -2z
m-227 -1179 c0 -60 -3 -75 -15 -75 -12 0 -15 15 -15 75 0 60 3 75 15 75 12 0
15 -15 15 -75z m-94 -8 c7 -19 -9 -88 -21 -88 -6 0 -14 18 -19 41 -7 33 -6 44
5 51 19 12 29 11 35 -4z m-198 -121 c4 -20 -13 -36 -39 -36 -22 0 -33 29 -18
47 17 19 53 12 57 -11z"/>
<path d="M5940 2970 c0 -5 5 -10 11 -10 5 0 7 5 4 10 -3 6 -8 10 -11 10 -2 0
-4 -4 -4 -10z"/>
<path d="M5825 3890 c-4 -6 -3 -16 3 -22 6 -6 12 -6 17 2 4 6 3 16 -3 22 -6 6
-12 6 -17 -2z"/>
<path d="M5650 3090 c0 -5 7 -10 15 -10 8 0 15 5 15 10 0 6 -7 10 -15 10 -8 0
-15 -4 -15 -10z"/>
<path d="M5300 2580 c0 -5 7 -10 15 -10 8 0 15 5 15 10 0 6 -7 10 -15 10 -8 0
-15 -4 -15 -10z"/>
<path d="M4346 5081 c45 -42 156 -132 158 -130 2 2 6 19 9 36 5 27 1 39 -24
68 -29 33 -35 35 -92 35 -35 0 -57 -4 -51 -9z"/>
<path d="M4527 5078 c6 -7 12 -19 15 -27 3 -9 9 -6 21 13 l17 26 -31 0 c-24 0
-29 -3 -22 -12z"/>
<path d="M4540 4952 c0 -30 3 -33 192 -190 20 -17 171 -18 176 -1 10 26 50 4
112 -62 l67 -70 143 0 c88 0 147 4 153 10 8 8 -29 11 -126 10 l-137 0 -84 88
c-74 78 -85 86 -100 74 -13 -11 -20 -11 -28 -3 -8 8 -49 12 -109 12 l-97 0
-42 50 c-23 27 -59 63 -81 81 l-39 31 0 -30z"/>
<path d="M4765 4939 c-10 -15 3 -25 16 -12 7 7 7 13 1 17 -6 3 -14 1 -17 -5z"/>
<path d="M5135 4891 c-3 -5 -1 -12 5 -16 5 -3 10 1 10 9 0 18 -6 21 -15 7z"/>
<path d="M5340 4860 c0 -5 5 -10 10 -10 6 0 10 5 10 10 0 6 -4 10 -10 10 -5 0
-10 -4 -10 -10z"/>
<path d="M5716 4685 c4 -8 11 -15 16 -15 6 0 5 6 -2 15 -7 8 -14 15 -16 15 -2
0 -1 -7 2 -15z"/>
<path d="M5812 4531 c4 -13 18 -16 19 -4 0 4 -5 9 -11 12 -7 2 -11 -2 -8 -8z"/>
<path d="M5285 4511 c-6 -11 9 -23 19 -14 9 9 7 23 -3 23 -6 0 -12 -4 -16 -9z"/>
<path d="M5180 4394 c0 -13 47 -43 68 -44 17 0 22 6 22 25 0 23 -4 25 -45 25
-25 0 -45 -3 -45 -6z"/>
<path d="M6520 4195 c-11 -13 -8 -15 20 -15 28 0 31 2 20 15 -7 8 -16 15 -20
15 -4 0 -13 -7 -20 -15z"/>
<path d="M6135 4119 c-4 -17 -4 -33 -1 -37 15 -14 39 -9 43 9 3 10 9 19 13 19
5 0 6 9 3 20 -3 13 -14 20 -28 20 -18 0 -25 -7 -30 -31z"/>
<path d="M6222 4128 c3 -22 5 -22 203 -26 l200 -3 88 -90 c56 -58 93 -89 102
-85 8 3 17 1 20 -4 4 -6 17 -10 31 -10 20 0 6 15 -73 82 -54 45 -117 99 -140
120 l-43 38 -195 0 -196 0 3 -22z"/>
<path d="M6246 4054 c-3 -8 -15 -14 -26 -14 -21 0 -27 -14 -10 -25 6 -3 10
-15 10 -26 0 -10 -4 -19 -10 -19 -5 0 -10 -11 -10 -25 0 -14 5 -25 10 -25 14
0 13 -47 -1 -56 -7 -4 -10 -25 -6 -58 6 -56 5 -55 247 -282 l75 -70 53 4 c28
2 52 7 52 11 0 7 -86 98 -113 119 -13 10 -15 17 -7 32 6 11 17 20 24 20 18 0
38 -25 34 -44 -2 -8 21 -42 50 -75 l53 -61 83 0 c81 0 83 -1 116 -35 l34 -35
116 2 116 2 55 -57 c39 -42 61 -57 81 -57 32 0 42 -12 33 -41 -9 -27 -58 -23
-63 6 -2 11 -27 44 -55 73 l-51 52 -128 0 -127 0 -27 35 c-25 34 -29 35 -90
35 -35 0 -64 -3 -64 -8 0 -4 34 -44 76 -90 l76 -82 89 0 c53 0 89 4 89 10 0 6
9 10 19 10 20 0 37 -32 26 -50 -8 -13 -42 -13 -50 0 -3 6 -46 10 -95 10 l-88
0 -93 100 -92 99 -51 -5 c-28 -3 -52 -7 -53 -8 -2 -1 82 -86 186 -189 l188
-187 391 0 391 0 41 42 c22 23 40 47 40 53 0 12 -72 85 -84 85 -4 0 -16 -10
-26 -22 -16 -20 -22 -21 -39 -10 -13 7 -56 12 -109 12 l-89 0 -112 115 -113
115 -162 0 c-157 0 -163 1 -184 23 -27 29 -28 37 -3 37 11 0 23 -9 26 -20 6
-19 15 -20 172 -20 l165 0 109 -111 109 -112 78 -3 c45 -2 93 2 115 10 l37 12
-28 27 c-47 45 -130 61 -164 30 -17 -15 -19 -15 -37 1 -11 10 -25 14 -36 10
-15 -6 -17 -4 -12 10 5 13 -9 35 -55 82 l-61 64 -164 0 c-149 0 -163 2 -163
18 0 16 13 17 167 14 93 -2 183 0 202 5 l34 9 -50 37 c-41 30 -59 37 -97 37
-25 0 -55 -5 -65 -12 -37 -23 -82 22 -46 48 13 10 23 10 37 3 10 -6 34 -9 53
-7 l35 3 -52 42 -53 43 -185 0 -185 0 -93 93 c-73 72 -95 89 -102 77 -7 -12
-12 -12 -34 -1 -18 10 -56 13 -145 9 -109 -5 -121 -3 -121 12 0 15 13 17 98
17 54 0 125 4 157 8 l59 7 96 -101 96 -101 107 0 c99 0 107 1 107 19 0 25 -37
33 -122 26 l-66 -5 -94 101 -95 101 -139 -2 c-76 -1 -152 -3 -169 -4 -24 -1
-31 3 -33 22 -4 25 23 41 41 23 7 -7 50 -11 113 -11 93 0 103 2 116 22 10 16
20 19 34 14 19 -7 19 -8 0 -22 -19 -13 -18 -14 10 -14 23 0 43 -13 89 -60 32
-33 61 -58 63 -56 2 2 20 -14 41 -37 l38 -40 102 -1 103 -1 -38 33 c-31 26
-46 32 -85 32 -26 0 -51 -4 -54 -10 -9 -15 -45 -12 -45 4 0 8 -39 55 -87 105
l-88 90 -182 -1 c-143 -1 -183 -4 -187 -14z m69 -214 c4 -6 54 -10 118 -10
l112 0 98 -100 97 -100 110 0 c71 0 117 4 130 12 23 15 53 2 58 -25 4 -21 -36
-43 -51 -28 -7 7 -57 11 -130 11 l-120 0 -106 105 -106 106 -105 -2 c-58 -1
-111 -6 -117 -12 -27 -20 -60 22 -36 46 10 10 41 8 48 -3z m1303 -678 c3 -9
-2 -13 -14 -10 -9 1 -19 9 -22 16 -3 9 2 13 14 10 9 -1 19 -9 22 -16z"/>
<path d="M6990 3615 c0 -8 5 -15 10 -15 6 0 10 7 10 15 0 8 -4 15 -10 15 -5 0
-10 -7 -10 -15z"/>
<path d="M7030 3766 c0 -15 37 -32 47 -22 9 8 -17 36 -33 36 -8 0 -14 -6 -14
-14z"/>
<path d="M6525 3611 c-6 -11 9 -23 19 -14 9 9 7 23 -3 23 -6 0 -12 -4 -16 -9z"/>
<path d="M7120 3610 c0 -5 5 -10 10 -10 6 0 10 5 10 10 0 6 -4 10 -10 10 -5 0
-10 -4 -10 -10z"/>
<path d="M7370 3423 c35 -38 65 -70 67 -72 1 -2 9 2 17 8 11 9 20 10 36 1 11
-6 33 -10 47 -8 24 3 21 7 -43 61 -38 31 -76 57 -86 57 -10 0 -18 5 -18 10 0
6 -19 10 -42 10 l-41 0 63 -67z"/>
<path d="M7266 3263 c-11 -11 -6 -23 9 -23 8 0 15 4 15 9 0 13 -16 22 -24 14z"/>
<path d="M7040 3250 c0 -5 5 -10 11 -10 5 0 7 5 4 10 -3 6 -8 10 -11 10 -2 0
-4 -4 -4 -10z"/>
<path d="M7640 3220 c0 -5 5 -10 10 -10 6 0 10 5 10 10 0 6 -4 10 -10 10 -5 0
-10 -4 -10 -10z"/>
<path d="M7820 3126 c0 -2 8 -10 18 -17 15 -13 16 -12 3 4 -13 16 -21 21 -21
13z"/>
<path d="M7777 3082 c-22 -24 -21 -32 3 -32 15 0 20 7 20 25 0 30 -2 30 -23 7z"/>
<path d="M7820 3070 c0 -13 7 -20 20 -20 11 0 20 4 20 10 0 5 -9 14 -20 20
-17 9 -20 8 -20 -10z"/>
<path d="M8530 5826 c0 -2 7 -7 16 -10 8 -3 12 -2 9 4 -6 10 -25 14 -25 6z"/>
<path d="M8605 5785 c11 -9 34 -23 50 -31 28 -14 29 -14 10 1 -11 9 -33 23
-50 31 -28 14 -29 14 -10 -1z"/>
<path d="M3540 5690 c0 -5 5 -10 10 -10 6 0 10 5 10 10 0 6 -4 10 -10 10 -5 0
-10 -4 -10 -10z"/>
<path d="M3620 5645 c7 -9 15 -13 17 -11 7 7 -7 26 -19 26 -6 0 -6 -6 2 -15z"/>
<path d="M3620 5580 c0 -5 5 -10 10 -10 6 0 10 5 10 10 0 6 -4 10 -10 10 -5 0
-10 -4 -10 -10z"/>
<path d="M8665 5370 c-3 -5 -1 -10 4 -10 6 0 11 5 11 10 0 6 -2 10 -4 10 -3 0
-8 -4 -11 -10z"/>
<path d="M8676 5332 c-3 -5 1 -9 9 -9 8 0 12 4 9 9 -3 4 -7 8 -9 8 -2 0 -6 -4
-9 -8z"/>
<path d="M5955 818 c-336 -8 -462 -15 -504 -27 -19 -6 -39 -8 -45 -5 -6 3 -3
-1 7 -10 39 -31 311 -57 637 -59 301 -2 700 16 747 34 25 9 31 43 11 55 -23
15 -497 22 -853 12z"/>
</g>
</svg>
